<svg width="21" height="20" viewBox="0 0 21 20" fill="none" xmlns="http://www.w3.org/2000/svg">
<path d="M6.50065 1.66699C4.19946 1.66699 2.33398 3.53247 2.33398 5.83366C2.33398 7.37591 3.1719 8.72246 4.41732 9.4429V14.8696C4.41732 15.5509 4.41732 15.8915 4.54419 16.1978C4.67105 16.5041 4.91191 16.7449 5.39363 17.2266L6.50065 18.3337L8.25748 16.5768C8.3385 16.4958 8.37904 16.4553 8.41265 16.4113C8.50091 16.2959 8.55745 16.1594 8.57667 16.0153C8.58398 15.9605 8.58398 15.9032 8.58398 15.7886C8.58398 15.6958 8.58398 15.6495 8.57907 15.6044C8.56618 15.4863 8.52818 15.3723 8.46761 15.27C8.44451 15.231 8.41668 15.1939 8.36103 15.1197L7.33398 13.7503L7.91732 12.9725C8.24773 12.532 8.41293 12.3117 8.49846 12.0552C8.58398 11.7986 8.58398 11.5232 8.58398 10.9725V9.4429C9.8294 8.72246 10.6673 7.37591 10.6673 5.83366C10.6673 3.53247 8.80184 1.66699 6.50065 1.66699Z" stroke="#A30552" stroke-linejoin="round"/>
<path d="M6.5 5.8335H6.50748" stroke="#A30552" stroke-width="1.5" stroke-linecap="round" stroke-linejoin="round"/>
<path d="M11.5 11.667H16.5C17.2766 11.667 17.6649 11.667 17.9711 11.7939C18.3795 11.963 18.704 12.2875 18.8731 12.6959C19 13.0021 19 13.3904 19 14.167C19 14.9436 19 15.3318 18.8731 15.6381C18.704 16.0465 18.3795 16.371 17.9711 16.5401C17.6649 16.667 17.2766 16.667 16.5 16.667H11.5" stroke="#A30552" stroke-linecap="round"/>
<path d="M13.167 4.16699H16.5003C17.2769 4.16699 17.6652 4.16699 17.9715 4.29386C18.3798 4.46302 18.7043 4.78747 18.8735 5.19585C19.0003 5.50214 19.0003 5.89042 19.0003 6.66699C19.0003 7.44356 19.0003 7.83185 18.8735 8.13813C18.7043 8.54651 18.3798 8.87097 17.9715 9.04013C17.6652 9.16699 17.2769 9.16699 16.5003 9.16699H13.167" stroke="#A30552" stroke-linecap="round"/>
</svg>
