<svg width="24" height="24" viewBox="0 0 24 24" fill="none" xmlns="http://www.w3.org/2000/svg">
<path opacity="0.4" d="M2.25489 10.9221C4.17371 14.412 8.29858 15.7487 12.0009 15.7487C15.7033 15.7487 19.8283 14.4119 21.747 10.9219C21.7508 10.9589 21.7519 10.9965 21.7501 11.0342L21.5945 14.3183C21.5147 15.9908 21.4511 17.3242 21.2555 18.3675C21.053 19.4477 20.6925 20.3195 19.9469 20.998C19.2062 21.6722 18.2896 21.9695 17.1645 22.1109C16.0684 22.2487 14.6731 22.2487 12.909 22.2487H11.0929C9.32885 22.2487 7.93355 22.2487 6.83746 22.1109C5.71235 21.9695 4.79578 21.6722 4.05502 20.998C3.30944 20.3195 2.94892 19.4477 2.74643 18.3675C2.55085 17.3242 2.48723 15.9908 2.40742 14.3183L2.25182 11.0342C2.25004 10.9965 2.2511 10.9591 2.25489 10.9221Z" fill="#1A73E8"/>
<path d="M19.3525 5.25C20.8016 5.25 21.6624 6.32331 22.0195 7.40918C22.3736 8.48629 22.3328 9.81185 21.8174 10.792C19.9307 14.3797 15.7494 15.75 12.001 15.75C8.25258 15.75 4.07126 14.3797 2.18457 10.792C1.66913 9.81183 1.62832 8.48631 1.98242 7.40918C2.33948 6.32343 3.19969 5.25023 4.64844 5.25H19.3525ZM11.9961 10C11.4465 10.0002 11.001 10.4479 11.001 11C11.001 11.5521 11.4465 11.9998 11.9961 12H12.0059C12.5555 11.9998 13.001 11.5521 13.001 11C13.001 10.4479 12.5555 10.0002 12.0059 10H11.9961Z" fill="#1A73E8"/>
<path fill-rule="evenodd" clip-rule="evenodd" d="M11.8259 1.5C11.9431 1.50001 12.0608 1.50001 12.1772 1.5C12.8226 1.49995 13.4015 1.49989 13.8814 1.56382C14.4121 1.63451 14.919 1.79327 15.3731 2.17507C15.814 2.54582 16.0771 3.02008 16.2817 3.53295C16.476 4.02046 16.6528 4.63914 16.8611 5.36828L16.9631 5.72529L15.04 6.27473L14.9517 5.96567C14.726 5.17561 14.5762 4.6557 14.4239 4.27373C14.2775 3.90647 14.1688 3.7755 14.0859 3.70581C14.0161 3.64718 13.9133 3.58572 13.6173 3.54631C13.2851 3.50205 12.841 3.50001 12.1185 3.50001H11.8846C11.1621 3.50001 10.718 3.50205 10.3858 3.54631C10.0899 3.58572 9.98698 3.64718 9.91725 3.70581C9.83437 3.7755 9.72567 3.90647 9.57923 4.27373C9.42692 4.6557 9.27712 5.17561 9.05139 5.96567L8.96309 6.27473L7.04004 5.72529C7.07404 5.60629 7.10804 5.48729 7.14204 5.3683C7.35034 4.63915 7.52708 4.02046 7.72148 3.53295C7.92598 3.02008 8.18917 2.54582 8.63007 2.17507C9.08411 1.79327 9.59098 1.63451 10.1217 1.56382C10.6016 1.49989 11.1806 1.49995 11.8259 1.5Z" fill="#1A73E8"/>
</svg>
