<svg width="20" height="20" viewBox="0 0 20 20" fill="none" xmlns="http://www.w3.org/2000/svg">
<path d="M5.83398 10V17.5M14.1673 10V17.5" stroke="#111113" stroke-width="1.5" stroke-linecap="round" stroke-linejoin="round"/>
<path d="M2.5 10H17.5" stroke="#111113" stroke-width="1.5" stroke-linecap="round" stroke-linejoin="round"/>
<path d="M2.08398 11.4583C2.08398 8.41385 2.08398 6.8916 3.01148 5.9458C3.93897 5 5.43176 5 8.41732 5H11.584C14.5695 5 16.0623 5 16.9898 5.9458C17.9173 6.8916 17.9173 8.41385 17.9173 11.4583C17.9173 14.5028 17.9173 16.0251 16.9898 16.9709C16.0623 17.9167 14.5695 17.9167 11.584 17.9167H8.41732C5.43176 17.9167 3.93897 17.9167 3.01148 16.9709C2.08398 16.0251 2.08398 14.5028 2.08398 11.4583Z" stroke="#111113" stroke-width="1.5" stroke-linecap="round"/>
<path d="M13.75 4.99967L13.6672 4.74212C13.2547 3.45875 13.0484 2.81707 12.5574 2.45004C12.0664 2.08301 11.4141 2.08301 10.1097 2.08301H9.89035C8.58587 2.08301 7.93363 2.08301 7.44259 2.45004C6.95155 2.81707 6.7453 3.45875 6.33278 4.74212L6.25 4.99967" stroke="#111113" stroke-width="1.5"/>
</svg>
