<svg width="16" height="16" viewBox="0 0 16 16" fill="none" xmlns="http://www.w3.org/2000/svg">
<g clip-path="url(#clip0_1028_4484)">
<path d="M10.667 6.66699L12.0999 7.09687C13.0154 7.37151 13.4731 7.50883 13.7367 7.86313C14.0003 8.21742 14.0003 8.69531 14.0003 9.65107V14.667" stroke="#111113" stroke-linejoin="round"/>
<path d="M5.33398 6L7.33398 6M5.33398 8.66667L7.33398 8.66667" stroke="#111113" stroke-linecap="round" stroke-linejoin="round"/>
<path d="M8.00033 14.6668V12.6668C8.00033 12.0383 8.00033 11.724 7.80506 11.5288C7.6098 11.3335 7.29553 11.3335 6.66699 11.3335H6.00033C5.37179 11.3335 5.05752 11.3335 4.86225 11.5288C4.66699 11.724 4.66699 12.0383 4.66699 12.6668V14.6668" stroke="#111113" stroke-linejoin="round"/>
<path d="M1.33398 14.667L14.6673 14.667" stroke="#111113" stroke-linecap="round"/>
<path d="M2 14.6668V4.47832C2 2.80449 2 1.96757 2.52746 1.55233C3.05491 1.13708 3.83161 1.36253 5.38501 1.81343L8.71835 2.78098C9.65576 3.05307 10.1245 3.18912 10.3956 3.55993C10.6667 3.93074 10.6667 4.43579 10.6667 5.44587V14.6668" stroke="#111113" stroke-linecap="round" stroke-linejoin="round"/>
</g>
<defs>
<clipPath id="clip0_1028_4484">
<rect width="16" height="16" fill="white"/>
</clipPath>
</defs>
</svg>
