<svg width="32" height="32" viewBox="0 0 32 32" fill="none" xmlns="http://www.w3.org/2000/svg">
<path d="M24 2.66699V5.33366M8 2.66699V5.33366" stroke="#CF1B2B" stroke-width="2.5" stroke-linecap="round" stroke-linejoin="round"/>
<path d="M15.9934 17.3335H16.0053M15.9934 22.6668H16.0053M21.3207 17.3335H21.3327M10.666 17.3335H10.678M10.666 22.6668H10.678" stroke="#CF1B2B" stroke-width="3" stroke-linecap="round" stroke-linejoin="round"/>
<path d="M4.66602 10.667H27.3327" stroke="#CF1B2B" stroke-width="1.5" stroke-linecap="round" stroke-linejoin="round"/>
<path d="M3.33301 16.3243C3.33301 10.5146 3.33301 7.60971 5.0025 5.80486C6.67199 4 9.359 4 14.733 4H17.2663C22.6404 4 25.3274 4 26.9968 5.80486C28.6663 7.60971 28.6663 10.5146 28.6663 16.3243V17.009C28.6663 22.8188 28.6663 25.7236 26.9968 27.5285C25.3274 29.3333 22.6404 29.3333 17.2663 29.3333H14.733C9.359 29.3333 6.67199 29.3333 5.0025 27.5285C3.33301 25.7236 3.33301 22.8188 3.33301 17.009V16.3243Z" stroke="#CF1B2B" stroke-width="2.5" stroke-linecap="round" stroke-linejoin="round"/>
<path d="M4 10.667H28" stroke="#CF1B2B" stroke-width="2.5" stroke-linecap="round" stroke-linejoin="round"/>
</svg>
