<svg width="25" height="24" viewBox="0 0 25 24" fill="none" xmlns="http://www.w3.org/2000/svg">
<path d="M12.6963 1.25C13.3004 1.24999 13.801 1.24999 14.2139 1.28516C14.6465 1.32202 15.0379 1.40119 15.415 1.58789C16.0865 1.92051 16.5115 2.44854 16.8096 2.97852C17.0407 3.38953 17.22 3.85182 17.3721 4.24316C17.408 4.33548 17.4424 4.42393 17.4756 4.50684L17.6232 4.87558C17.6957 5.05677 17.732 5.14737 17.8069 5.19882C17.8819 5.25027 17.9805 5.25157 18.1778 5.25416C19.0989 5.26627 19.7949 5.31864 20.4062 5.5752C21.3541 5.97301 22.1236 6.70659 22.5723 7.63574C22.7724 8.05023 22.874 8.4956 22.9414 9.0127C23.0072 9.51681 23.0458 10.1388 23.0938 10.917L23.2539 13.5127C23.3738 15.4559 23.4683 16.9919 23.3799 18.1963C23.289 19.4331 22.9989 20.4422 22.251 21.249C21.5016 22.0572 20.5219 22.4153 19.3047 22.585C18.1221 22.7498 16.602 22.75 14.6826 22.75H10.6475C8.72804 22.75 7.20803 22.7498 6.02539 22.585C4.80816 22.4153 3.82849 22.0572 3.0791 21.249C2.33119 20.4422 2.04105 19.4331 1.9502 18.1963C1.86176 16.9919 1.95631 15.4559 2.07617 13.5127L2.23633 10.917C2.28431 10.1389 2.32195 9.51679 2.3877 9.0127C2.45515 8.4956 2.5577 8.05024 2.75781 7.63574C3.20647 6.70659 3.97602 5.97301 4.92383 5.5752C5.53513 5.31865 6.23118 5.26627 7.15227 5.25416C7.34957 5.25157 7.44822 5.25027 7.52316 5.19882C7.59811 5.14737 7.63437 5.05677 7.7069 4.87558L7.85449 4.50684C7.88766 4.42391 7.92212 4.3355 7.95801 4.24316C8.11006 3.85196 8.28948 3.3904 8.52051 2.97949C8.81871 2.44926 9.24408 1.92056 9.91602 1.58789C10.293 1.40124 10.6837 1.32203 11.1162 1.28516C11.5291 1.24999 12.0297 1.24999 12.6338 1.25H12.6963ZM12.667 10C10.4579 10.0001 8.66699 11.7909 8.66699 14C8.66699 16.2091 10.4579 17.9999 12.667 18C14.8761 18 16.667 16.2091 16.667 14C16.667 11.7909 14.8761 10 12.667 10ZM12.6631 5C12.1133 5 11.667 5.44772 11.667 6C11.667 6.55228 12.1133 7 12.6631 7C13.2088 6.99975 13.667 6.55194 13.667 6C13.667 5.44806 13.2088 5.00025 12.6631 5Z" fill="#FAFAFA"/>
</svg>
