<svg width="24" height="24" viewBox="0 0 24 24" fill="none" xmlns="http://www.w3.org/2000/svg">
<path d="M12.0009 22C6.47809 22 2.00098 17.5228 2.00098 12C2.00098 6.47715 6.47813 2 12.001 2C16.4786 2 20.2267 4.94289 21.5009 9H19.0009" stroke="#A30552" stroke-width="1.5" stroke-linecap="round" stroke-linejoin="round"/>
<path d="M12.001 8V12L14.001 14" stroke="#A30552" stroke-width="1.5" stroke-linecap="round" stroke-linejoin="round"/>
<path d="M21.956 13C21.9858 12.6709 22.001 12.3373 22.001 12M15.001 22C15.3426 21.8876 15.6763 21.7564 16.001 21.6078M20.7916 17C20.9844 16.6284 21.1565 16.2433 21.306 15.8462M18.1934 20.2292C18.5379 19.9441 18.8641 19.6358 19.1698 19.3065" stroke="#A30552" stroke-width="1.5" stroke-linecap="round" stroke-linejoin="round"/>
</svg>
