<svg width="25" height="24" viewBox="0 0 25 24" fill="none" xmlns="http://www.w3.org/2000/svg">
<path d="M6.76581 19C5.46569 18.8721 4.49175 18.4816 3.83857 17.8284C2.66699 16.6569 2.66699 14.7712 2.66699 11V10.5C2.66699 6.72876 2.66699 4.84315 3.83857 3.67157C5.01014 2.5 6.89576 2.5 10.667 2.5H14.667C18.4382 2.5 20.3238 2.5 21.4954 3.67157C22.667 4.84315 22.667 6.72876 22.667 10.5V11C22.667 14.7712 22.667 16.6569 21.4954 17.8284C20.3238 19 18.4382 19 14.667 19C14.1065 19.0125 13.6601 19.0551 13.2216 19.155C12.0232 19.4309 10.9135 20.0441 9.81686 20.5789C8.25428 21.3408 7.47299 21.7218 6.98269 21.3651C6.04469 20.6665 6.96153 18.5019 7.16699 17.5" stroke="#A30552" stroke-width="1.5" stroke-linecap="round"/>
</svg>
