<svg width="24" height="24" viewBox="0 0 24 24" fill="none" xmlns="http://www.w3.org/2000/svg">
<path d="M14.4699 15.9517C13.756 16.6655 12.4902 16.7288 10.6054 16.7336C10.1947 16.7346 9.98929 16.7352 9.80622 16.8113C9.62314 16.8874 9.47906 17.0315 9.19091 17.3197L4.55464 21.9566C3.79888 22.7124 2.57355 22.7124 1.8178 21.9566C1.06204 21.2009 1.06204 19.9755 1.8178 19.2198L6.45487 14.5824C6.74299 14.2943 6.88705 14.1502 6.96314 13.9672C7.03924 13.7841 7.03976 13.5788 7.04081 13.1681C7.04561 11.2845 7.10901 10.0181 7.82282 9.30438C8.63666 8.49068 8.9961 8.52362 12.6013 8.52362C12.9497 8.52213 13.125 8.94347 12.8787 9.18982L11.0225 11.0462C10.5513 11.5174 10.55 12.2813 11.0212 12.7525C11.4925 13.2236 12.2564 13.2237 12.7277 12.7526L14.5845 10.8967C14.8309 10.6504 15.2523 10.8257 15.2508 11.174C15.2508 14.7786 15.2837 15.138 14.4699 15.9517Z" fill="#FBBC04"/>
<path opacity="0.4" fill-rule="evenodd" clip-rule="evenodd" d="M15.4695 4.11315C15.4939 4.12707 15.52 4.14202 15.5482 4.15817L17.2337 5.12277C17.2644 5.14036 17.2928 5.15658 17.3191 5.17171C17.3004 5.24684 17.2785 5.33199 17.2527 5.43208C16.6217 7.8815 18.1462 10.4122 20.5527 11.0663C20.6461 11.0916 20.726 11.1134 20.7964 11.1331C20.7964 11.1624 20.7964 11.1939 20.7964 11.2279V13.1327C20.7964 13.1667 20.7964 13.1982 20.7964 13.2275C20.726 13.2472 20.6461 13.269 20.5527 13.2944C18.1462 13.9485 16.623 16.4795 17.2542 18.9286C17.28 19.0286 17.3019 19.1137 17.3206 19.1888C17.2943 19.2039 17.266 19.2201 17.2352 19.2377L15.5498 20.2023C15.5216 20.2185 15.4954 20.2334 15.471 20.2473C15.4206 20.1973 15.364 20.1404 15.2979 20.074C13.216 17.9799 9.56186 18.2944 7.96299 21.0395C7.68973 21.5087 7.84553 22.1123 8.31098 22.3877C8.77642 22.6631 9.37526 22.5061 9.64852 22.0369C10.5752 20.446 12.7051 20.2493 13.9173 21.4685L13.941 21.4923C14.1043 21.6567 14.2682 21.8216 14.4132 21.9445C14.5474 22.0584 14.8171 22.2743 15.1928 22.3253C15.5362 22.372 15.8198 22.2701 15.9954 22.1924C16.1541 22.1221 16.33 22.0214 16.4865 21.9317L18.2003 20.951C18.2097 20.9456 18.2193 20.9401 18.2289 20.9346C18.3887 20.8432 18.567 20.7413 18.7096 20.639C18.866 20.5267 19.1019 20.3314 19.2385 20.0059C19.3886 19.6482 19.3369 19.2966 19.3073 19.1232C19.2744 18.9314 19.2147 18.6998 19.1544 18.466L19.146 18.4332C18.7933 17.0649 19.656 15.5786 21.0616 15.1965L21.0941 15.1877C21.3207 15.1261 21.547 15.0647 21.7268 14.9989C21.8919 14.9386 22.2162 14.81 22.4488 14.504C22.6612 14.2245 22.7135 13.9228 22.7332 13.73C22.7511 13.555 22.751 13.3494 22.751 13.1657C22.751 13.1546 22.751 13.1436 22.751 13.1327V11.2279C22.751 11.217 22.751 11.206 22.751 11.1949C22.751 11.0112 22.7511 10.8056 22.7332 10.6306C22.7135 10.4378 22.6611 10.1361 22.4487 9.85659C22.2161 9.55053 21.8918 9.42201 21.7268 9.36166C21.5469 9.2959 21.3206 9.23444 21.094 9.17289C21.0832 9.16995 21.0724 9.16701 21.0616 9.16407C19.6553 8.78189 18.7921 7.29529 19.1445 5.92721C19.1473 5.91627 19.1501 5.90533 19.1529 5.8944C19.2132 5.66062 19.2729 5.42898 19.3057 5.23714C19.3354 5.06383 19.387 4.71219 19.2369 4.35451C19.1003 4.02903 18.8644 3.83372 18.708 3.7215C18.5654 3.61919 18.3871 3.51727 18.2273 3.42586C18.2177 3.42038 18.2082 3.41494 18.1987 3.40953L16.5132 2.44493C16.5039 2.43958 16.4945 2.43418 16.485 2.42874C16.3284 2.33908 16.1526 2.23837 15.9939 2.16815C15.8184 2.09045 15.5347 1.98857 15.1913 2.0352C14.8157 2.08621 14.546 2.30209 14.4118 2.41587C14.2668 2.53878 14.1029 2.70366 13.9395 2.86802C13.9316 2.87596 13.9237 2.88389 13.9158 2.89182C12.8712 3.94229 11.1292 3.94231 10.0846 2.89191L10.0609 2.86811C9.8975 2.70375 9.73359 2.53887 9.58861 2.41596C9.4544 2.30218 9.18471 2.0863 8.80907 2.03529C8.4657 1.98867 8.18205 2.09055 8.00648 2.16824C7.84781 2.23846 7.67198 2.33917 7.51545 2.42883C7.50595 2.43427 7.49652 2.43968 7.48717 2.44503L5.80167 3.40963C5.79223 3.41503 5.78271 3.42048 5.77312 3.42596C5.61326 3.51737 5.43501 3.61929 5.29238 3.72162C5.13595 3.83385 4.90004 4.02919 4.76345 4.3547C4.61336 4.7124 4.66504 5.06404 4.6947 5.23737C4.72752 5.42921 4.78726 5.66083 4.84754 5.89459L4.856 5.9274C5.20865 7.29574 4.34591 8.78198 2.94034 9.16407L2.90789 9.17289C2.68127 9.23445 2.45498 9.29593 2.27513 9.36169C2.11007 9.42205 1.7858 9.55058 1.55319 9.85664C1.3408 10.1361 1.28844 10.4378 1.26873 10.6306C1.25084 10.8056 1.25092 11.0112 1.25098 11.1949C1.25099 11.206 1.25099 11.217 1.25099 11.2279V13.1327C1.25099 13.1436 1.25099 13.1546 1.25098 13.1657C1.25092 13.3494 1.25084 13.555 1.26873 13.73C1.28844 13.9229 1.3408 14.2245 1.55321 14.504C1.78579 14.81 2.10996 14.9386 2.27506 14.9989C2.45486 15.0647 2.68107 15.1261 2.90756 15.1876L2.94003 15.1965L2.95312 15.2001C3.47351 15.3444 4.01144 15.0362 4.15463 14.5116C4.29781 13.9871 3.99203 13.4449 3.47164 13.3005L3.44887 13.2943C3.35561 13.2689 3.27587 13.2472 3.20558 13.2276C3.20554 13.1982 3.20553 13.1667 3.20553 13.1327V11.2279C3.20553 11.1939 3.20554 11.1624 3.20558 11.1331C3.27598 11.1133 3.35584 11.0916 3.44927 11.0662C5.85579 10.412 7.37893 7.88108 6.74775 5.43204C6.72197 5.332 6.70004 5.24689 6.68132 5.17179C6.70765 5.15666 6.73598 5.14045 6.7667 5.12286L8.4522 4.15826C8.48041 4.14212 8.50654 4.12717 8.53096 4.11324C8.5814 4.16325 8.63805 4.22019 8.70415 4.28666C10.5117 6.10426 13.4887 6.10416 15.2963 4.28656C15.3624 4.22009 15.419 4.16316 15.4695 4.11315Z" fill="#FBBC04"/>
</svg>
