<svg width="24" height="24" viewBox="0 0 24 24" fill="none" xmlns="http://www.w3.org/2000/svg">
<path opacity="0.4" d="M10.5512 1.97988C10.8386 1.5264 11.2806 1 12.0008 1C12.721 1 13.163 1.5264 13.4504 1.97988C13.7452 2.44519 14.0494 3.11548 14.4105 3.91099L14.4105 3.911C14.877 4.93864 15.2974 6.00522 15.8331 6.99964C16.1189 7.53032 16.6238 7.83299 17.2393 7.61455C17.5791 7.49393 17.9072 7.33903 18.2365 7.19269C18.8947 6.90012 19.7406 6.39807 20.488 6.61189C21.1168 6.79179 21.5643 7.31426 21.7112 7.92532C21.8005 8.29667 21.7226 8.67764 21.6314 9.00553C21.5371 9.34449 21.3836 9.76926 21.1985 10.2815L21.1985 10.2816L19.5062 14.9651C19.1611 15.9202 18.8826 16.691 18.5941 17.2893C18.0041 18.5128 17.0737 19.2598 15.7109 19.4248C15.0899 19.5 14.3282 19.5 13.4022 19.5H10.5994C9.6734 19.5 8.91165 19.5 8.29068 19.4248C6.92784 19.2598 5.99753 18.5128 5.40753 17.2893C5.119 16.691 4.8405 15.9202 4.49545 14.9652L4.49544 14.9652L2.80313 10.2816L2.80312 10.2816C2.61801 9.76929 2.46451 9.3445 2.3702 9.00553C2.27897 8.67764 2.20112 8.29667 2.29041 7.92532C2.43733 7.31426 2.88483 6.79179 3.51362 6.61189C4.27371 6.39442 5.12815 6.90957 5.79713 7.20692C6.2382 7.40295 6.53025 7.53218 6.76232 7.61455C7.3778 7.83299 7.88269 7.53032 8.16852 6.99964C8.70415 6.00523 9.12458 4.93866 9.59106 3.91103L9.59106 3.91103C9.95214 3.1155 10.2564 2.4452 10.5512 1.97988Z" fill="#FF383C"/>
<path fill-rule="evenodd" clip-rule="evenodd" d="M10.5067 14.5C10.5067 13.6716 11.1753 13 12 13H12.0134C12.8381 13 13.5067 13.6716 13.5067 14.5C13.5067 15.3284 12.8381 16 12.0134 16H12C11.1753 16 10.5067 15.3284 10.5067 14.5Z" fill="#FF383C"/>
<path fill-rule="evenodd" clip-rule="evenodd" d="M6.00098 22C6.00098 21.4477 6.44869 21 7.00098 21H17.001C17.5533 21 18.001 21.4477 18.001 22C18.001 22.5523 17.5533 23 17.001 23H7.00098C6.44869 23 6.00098 22.5523 6.00098 22Z" fill="#FF383C"/>
</svg>
