<svg width="32" height="32" viewBox="0 0 32 32" fill="none" xmlns="http://www.w3.org/2000/svg">
<path d="M22.667 14.4059C22.667 13.9451 22.667 13.7147 22.7364 13.5093C22.938 12.9126 23.4694 12.681 24.0018 12.4385C24.6003 12.1659 24.8996 12.0296 25.1961 12.0056C25.5327 11.9784 25.87 12.0509 26.1577 12.2124C26.5391 12.4265 26.8052 12.8332 27.0775 13.164C28.3353 14.6918 28.9642 15.4557 29.1944 16.2981C29.3801 16.9779 29.3801 17.6888 29.1944 18.3686C28.8587 19.5972 27.7983 20.6271 27.0134 21.5805C26.6119 22.0682 26.4111 22.312 26.1577 22.4543C25.87 22.6158 25.5327 22.6883 25.1961 22.6611C24.8996 22.6371 24.6003 22.5008 24.0018 22.2282C23.4694 21.9857 22.938 21.7541 22.7364 21.1574C22.667 20.952 22.667 20.7216 22.667 20.2607V14.4059Z" stroke="#1A73E8" stroke-width="2.5"/>
<path d="M9.33398 14.4057C9.33398 13.8253 9.31769 13.3038 8.84853 12.8958C8.67789 12.7474 8.45166 12.6443 7.99919 12.4382C7.40066 12.1656 7.10139 12.0293 6.80487 12.0053C5.9152 11.9334 5.43654 12.5406 4.92349 13.1638C3.66565 14.6915 3.03673 15.4554 2.8066 16.2978C2.62089 16.9776 2.62089 17.6885 2.8066 18.3683C3.14226 19.597 4.20268 20.6269 4.9876 21.5803C5.48237 22.1812 5.95501 22.7295 6.80487 22.6608C7.10139 22.6368 7.40066 22.5005 7.99919 22.2279C8.45166 22.0218 8.67789 21.9188 8.84853 21.7704C9.31769 21.3623 9.33398 20.8408 9.33398 20.2605V14.4057Z" stroke="#1A73E8" stroke-width="2.5"/>
<path d="M6.66699 12C6.66699 7.58172 10.8457 4 16.0003 4C21.155 4 25.3337 7.58172 25.3337 12" stroke="#1A73E8" stroke-width="2.5" stroke-linecap="square" stroke-linejoin="round"/>
<path d="M25.334 22.6665V23.7332C25.334 26.0896 22.9462 27.9998 20.0007 27.9998H17.334" stroke="#1A73E8" stroke-width="2.5" stroke-linecap="round" stroke-linejoin="round"/>
</svg>
