<svg width="17" height="16" viewBox="0 0 17 16" fill="none" xmlns="http://www.w3.org/2000/svg">
<path d="M13.667 3.6665L13.2538 10.3499C13.1483 12.0575 13.0955 12.9113 12.6675 13.5251C12.4559 13.8286 12.1834 14.0847 11.8675 14.2772C11.2284 14.6665 10.373 14.6665 8.66215 14.6665C6.94907 14.6665 6.09253 14.6665 5.45303 14.2765C5.13686 14.0836 4.86432 13.827 4.65278 13.5231C4.22491 12.9082 4.17329 12.0532 4.07006 10.3433L3.66699 3.6665" stroke="#DC1E38" stroke-linecap="round"/>
<path d="M2.66699 3.66634H14.667M11.3708 3.66634L10.9157 2.72749C10.6134 2.10385 10.4622 1.79202 10.2015 1.59755C10.1436 1.55441 10.0824 1.51604 10.0183 1.48281C9.7296 1.33301 9.38307 1.33301 8.69001 1.33301C7.97955 1.33301 7.62431 1.33301 7.33078 1.48909C7.26572 1.52368 7.20365 1.5636 7.14519 1.60845C6.88142 1.81081 6.73408 2.13404 6.4394 2.78051L6.03561 3.66634" stroke="#DC1E38" stroke-linecap="round"/>
<path d="M7 11L7 7" stroke="#DC1E38" stroke-linecap="round"/>
<path d="M10.334 11L10.334 7" stroke="#DC1E38" stroke-linecap="round"/>
</svg>
