<svg width="21" height="20" viewBox="0 0 21 20" fill="none" xmlns="http://www.w3.org/2000/svg">
<path d="M3.16699 18.3335H18.167" stroke="#A30552" stroke-linecap="round" stroke-linejoin="round"/>
<path d="M4 18.3337V5.00033C4 2.24255 4.65778 1.66699 7.80952 1.66699H13.5238C16.6756 1.66699 17.3333 2.24255 17.3333 5.00033V18.3337" stroke="#A30552" stroke-linecap="round" stroke-linejoin="round"/>
<path d="M11.7741 9.84025C11.7741 10.1164 11.998 10.3403 12.2741 10.3403C12.5503 10.3403 12.7741 10.1164 12.7741 9.84025H12.2741H11.7741ZM10.667 14.167V13.667C9.55285 13.667 8.66699 12.7845 8.66699 11.717H8.16699H7.66699C7.66699 13.3557 9.01971 14.667 10.667 14.667V14.167ZM13.167 11.717H12.667C12.667 12.7845 11.7811 13.667 10.667 13.667V14.167V14.667C12.3143 14.667 13.667 13.3557 13.667 11.717H13.167ZM10.667 9.26699V9.76699C11.7811 9.76699 12.667 10.6495 12.667 11.717H13.167H13.667C13.667 10.0783 12.3143 8.76699 10.667 8.76699V9.26699ZM10.667 9.26699V8.76699C9.01971 8.76699 7.66699 10.0783 7.66699 11.717H8.16699H8.66699C8.66699 10.6495 9.55285 9.76699 10.667 9.76699V9.26699ZM12.2741 8.24199H11.7741V9.84025H12.2741H12.7741V8.24199H12.2741ZM9.05985 9.84025H9.55985V8.24199H9.05985H8.55985V9.84025H9.05985ZM10.667 6.66699V7.16699C11.288 7.16699 11.7741 7.65776 11.7741 8.24199H12.2741H12.7741C12.7741 7.08653 11.8212 6.16699 10.667 6.16699V6.66699ZM10.667 6.66699V6.16699C9.51282 6.16699 8.55985 7.08653 8.55985 8.24199H9.05985H9.55985C9.55985 7.65776 10.046 7.16699 10.667 7.16699V6.66699Z" fill="#A30552"/>
</svg>
