<svg width="16" height="16" viewBox="0 0 16 16" fill="none" xmlns="http://www.w3.org/2000/svg">
<path d="M11.333 1.5C13.0819 1.5 14.5 2.91809 14.5 4.66699C14.4998 6.41574 13.0818 7.83301 11.333 7.83301C9.81293 7.83285 8.54439 6.76171 8.23828 5.33301H6.04004C5.97098 5.52348 5.87999 5.70231 5.78418 5.86133C5.57457 6.20917 5.29652 6.53629 5.00684 6.78906C4.74042 7.02151 4.37183 7.27343 3.97461 7.32422C3.75382 7.35241 3.47288 7.32224 3.22754 7.12988C2.98864 6.94249 2.88422 6.67923 2.84375 6.44824C2.78026 6.08566 3.02225 5.74039 3.38477 5.67676C3.62081 5.63542 3.84957 5.72394 3.99805 5.89062C4.03686 5.86261 4.08169 5.82708 4.13086 5.78418C4.27368 5.65949 4.41667 5.5015 4.53711 5.33301H2.16699C1.79896 5.33301 1.50026 5.03496 1.5 4.66699C1.5 4.2988 1.7988 4 2.16699 4H4.53711C4.41667 3.83151 4.27369 3.67352 4.13086 3.54883C4.08169 3.50592 4.03686 3.4704 3.99805 3.44238C3.84957 3.60907 3.62081 3.69758 3.38477 3.65625C3.02225 3.59261 2.78026 3.24734 2.84375 2.88477C2.88423 2.65378 2.98864 2.39051 3.22754 2.20312C3.47288 2.01077 3.75382 1.9806 3.97461 2.00879C4.37183 2.05958 4.74042 2.3115 5.00684 2.54395C5.29652 2.79672 5.57457 3.12384 5.78418 3.47168C5.87999 3.6307 5.97098 3.80952 6.04004 4H8.23828C8.54451 2.57146 9.81304 1.50015 11.333 1.5Z" fill="#68666F"/>
<path d="M4.66699 8.16699C6.18707 8.16715 7.45561 9.23829 7.76172 10.667H9.95996C10.029 10.4764 10.12 10.2968 10.2158 10.1377C10.4254 9.78997 10.7036 9.46364 10.9932 9.21094C11.2596 8.97847 11.6281 8.72659 12.0254 8.67578C12.2462 8.64759 12.5271 8.67765 12.7725 8.87012C13.0114 9.05755 13.1158 9.32074 13.1562 9.55176C13.2196 9.9143 12.9777 10.2596 12.6152 10.3232C12.3792 10.3646 12.1504 10.276 12.002 10.1094C11.9631 10.1374 11.9183 10.1719 11.8691 10.2148C11.7262 10.3396 11.5834 10.4984 11.4629 10.667H13.833C14.2011 10.667 14.4999 10.9649 14.5 11.333C14.5 11.7012 14.2012 12 13.833 12H11.4629C11.5834 12.1685 11.7263 12.3265 11.8691 12.4512C11.9183 12.4941 11.9631 12.5286 12.002 12.5566C12.1504 12.3901 12.3793 12.3015 12.6152 12.3428C12.9778 12.4064 13.2197 12.7526 13.1562 13.1152C13.1157 13.3461 13.0113 13.6096 12.7725 13.7969C12.5272 13.9891 12.2461 14.0184 12.0254 13.9902C11.6283 13.9394 11.2595 13.6885 10.9932 13.4561C10.7035 13.2033 10.4254 12.8762 10.2158 12.5283C10.12 12.3693 10.029 12.1905 9.95996 12H7.76172C7.45549 13.4285 6.18696 14.4998 4.66699 14.5C2.91809 14.5 1.5 13.0819 1.5 11.333C1.50018 9.58426 2.9182 8.16699 4.66699 8.16699Z" fill="#68666F"/>
</svg>
