<svg width="16" height="16" viewBox="0 0 16 16" fill="none" xmlns="http://www.w3.org/2000/svg">
<g clip-path="url(#clip0_1028_4594)">
<path d="M9.38312 2.58998C9.87991 2.05173 10.1283 1.78261 10.3923 1.62563C11.0291 1.24685 11.8134 1.23507 12.4609 1.59456C12.7292 1.74354 12.9853 2.00509 13.4973 2.52818C14.0094 3.05128 14.2654 3.31282 14.4113 3.58696C14.7632 4.24842 14.7517 5.04954 14.3809 5.70014C14.2272 5.96978 13.9638 6.22352 13.4369 6.73101L7.16774 12.7692C6.16923 13.7309 5.66998 14.2118 5.04602 14.4555C4.42207 14.6992 3.73612 14.6813 2.36423 14.6454L2.17757 14.6405C1.75992 14.6296 1.5511 14.6241 1.42971 14.4864C1.30832 14.3486 1.32489 14.1359 1.35804 13.7105L1.37604 13.4794C1.46932 12.282 1.51597 11.6833 1.74979 11.1452C1.98361 10.607 2.38694 10.17 3.1936 9.29601L9.38312 2.58998Z" stroke="#A30552" stroke-width="1.5" stroke-linejoin="round"/>
<path d="M8.66699 2.6665L13.3337 7.33317" stroke="#A30552" stroke-width="1.5" stroke-linejoin="round"/>
<path d="M9.33398 14.6665L14.6673 14.6665" stroke="#A30552" stroke-width="1.5" stroke-linecap="round" stroke-linejoin="round"/>
</g>
<defs>
<clipPath id="clip0_1028_4594">
<rect width="16" height="16" fill="white" transform="translate(0.000976562)"/>
</clipPath>
</defs>
</svg>
