<svg width="18" height="18" viewBox="0 0 18 18" fill="none" xmlns="http://www.w3.org/2000/svg">
<path d="M6.20663 9.44986C3.99467 7.7961 2.41834 5.97703 1.55763 4.95437C1.2912 4.6378 1.20389 4.40613 1.1514 3.99805C0.971657 2.60071 0.881785 1.90205 1.29151 1.45102C1.70124 1 2.42581 1 3.87496 1H14.125C15.5742 1 16.2988 1 16.7085 1.45102C17.1182 1.90205 17.0283 2.60072 16.8486 3.99805C16.7961 4.40614 16.7088 4.63781 16.4423 4.95437C15.5804 5.97833 14.001 7.80063 11.7845 9.45648C11.584 9.60629 11.4518 9.85043 11.4273 10.1212C11.2077 12.5484 11.0052 13.8779 10.8792 14.5504C10.6758 15.6362 9.13615 16.2894 8.31201 16.8723C7.82139 17.2192 7.22605 16.8062 7.16247 16.2692C7.04127 15.2454 6.81298 13.1657 6.5638 10.1212C6.54141 9.84794 6.40876 9.60096 6.20663 9.44986Z" stroke="#A30552" stroke-width="1.5" stroke-linecap="round" stroke-linejoin="round"/>
</svg>
