<svg width="16" height="16" viewBox="0 0 16 16" fill="none" xmlns="http://www.w3.org/2000/svg">
<path d="M1.43066 0C2.43643 0.000190278 3.3344 0.667265 3.58691 1.64844L3.91113 2.90918H4.36328C4.76491 2.90918 5.09073 3.23515 5.09082 3.63672C5.09082 4.03837 4.76497 4.36426 4.36328 4.36426H4.28613L5.75098 10.0566C5.7566 10.0785 5.75876 10.1011 5.76367 10.123L11.374 9.65625C12.3735 9.57295 12.7322 9.42792 12.9141 9.25098C13.0959 9.07396 13.2506 8.71919 13.3613 7.72266L13.7344 4.36426H13.4551C13.0534 4.36426 12.7275 4.03837 12.7275 3.63672C12.7276 3.23515 13.0534 2.90918 13.4551 2.90918L15.2734 2.90918C15.675 2.90928 16.0009 3.23521 16.001 3.63672C16.001 4.03831 15.675 4.36416 15.2734 4.36426H15.1973L14.8066 7.88379C14.6975 8.86579 14.5196 9.71816 13.9277 10.2939C13.3358 10.8695 12.4787 11.0234 11.4941 11.1055L5.5625 11.5996C5.50578 11.706 5.44309 11.8101 5.36816 11.9072L5.12305 12.2246C5.37671 12.4614 5.57323 12.757 5.69141 13.0908H9.58105C9.88083 12.2441 10.6862 11.6369 11.6357 11.6367C12.8408 11.6367 13.8184 12.6134 13.8184 13.8184C13.8183 15.0233 12.8408 16 11.6357 16C10.686 15.9998 9.88065 15.392 9.58105 14.5449H5.69141C5.39179 15.3922 4.58567 16 3.63574 16C2.4309 15.9998 1.45417 15.0231 1.4541 13.8184C1.4541 12.6135 2.43086 11.6369 3.63574 11.6367C3.6687 11.6367 3.70177 11.6392 3.73438 11.6406L4.2168 11.0186C4.35148 10.844 4.39553 10.6242 4.34277 10.4189L2.17871 2.01074C2.09801 1.69718 1.7987 1.45527 1.43066 1.45508L0.727539 1.45508C0.3259 1.45502 0 1.12916 0 0.727539C2.32303e-05 0.325941 0.325915 5.60615e-05 0.727539 0L1.43066 0ZM3.63574 13.0908C3.23423 13.091 2.90918 13.4168 2.90918 13.8184C2.90925 14.2198 3.23427 14.5457 3.63574 14.5459C4.03738 14.5459 4.36321 14.22 4.36328 13.8184C4.36328 13.4167 4.03743 13.0908 3.63574 13.0908ZM11.6357 13.0908C11.2342 13.091 10.9092 13.4168 10.9092 13.8184C10.9093 14.2198 11.2343 14.5457 11.6357 14.5459C12.0374 14.5459 12.3632 14.22 12.3633 13.8184C12.3633 13.4167 12.0374 13.0908 11.6357 13.0908ZM12.4844 0.768555C12.863 0.634615 13.279 0.833377 13.4131 1.21191C13.547 1.59045 13.3483 2.00559 12.9697 2.13965C12.5816 2.2771 12.1332 2.57373 11.6582 2.99023C11.1909 3.40005 10.7366 3.89239 10.334 4.375C9.93262 4.85608 9.59136 5.31713 9.35059 5.6582C9.22309 5.83881 9.09684 6.02087 8.97754 6.20703V6.20801C8.83698 6.42912 8.58785 6.55729 8.32617 6.54395C8.06449 6.53055 7.83017 6.37784 7.71289 6.14355C7.53712 5.79204 7.25515 5.22811 6.84082 5.08789C6.47106 5.05356 6.18164 4.74197 6.18164 4.36328C6.1818 3.96624 6.51352 3.63614 6.91016 3.63672C7.00818 3.63701 7.10077 3.64961 7.2334 3.6875C7.38456 3.7307 7.56709 3.80743 7.7666 3.94043C7.96606 4.0734 8.17575 4.25729 8.38574 4.50879C8.61496 4.19554 8.89732 3.82629 9.2168 3.44336C9.64828 2.92618 10.156 2.37289 10.6992 1.89648C11.235 1.42666 11.8457 0.994733 12.4844 0.768555Z" fill="#1A73E8"/>
</svg>
