<svg width="21" height="20" viewBox="0 0 21 20" fill="none" xmlns="http://www.w3.org/2000/svg">
<path d="M6.85714 2.802C10.1663 0.553733 14.9467 1.77059 16.6918 5.34868M9.71429 18.27C13.6533 18.8188 17.3333 15.7463 17.3333 11.8422V8.61144M6.85714 17.1719C5.13002 15.9984 4 14.0489 4 11.8422V8.13163C4 7.14436 4.2262 6.20856 4.63087 5.3707" stroke="#A30552" stroke-linecap="round" stroke-linejoin="round"/>
<path d="M14.0007 11.5C14.0007 13.433 12.5083 15 10.6673 15C8.82637 15 7.33398 13.433 7.33398 11.5V8.5C7.33398 7.9632 7.44908 7.45463 7.65476 7M10.6673 5C12.5083 5 14.0007 6.567 14.0007 8.5" stroke="#A30552" stroke-linecap="round" stroke-linejoin="round"/>
<path d="M10.667 8.75L10.667 11.25" stroke="#A30552" stroke-linecap="round" stroke-linejoin="round"/>
</svg>
