<svg width="24" height="24" viewBox="0 0 24 24" fill="none" xmlns="http://www.w3.org/2000/svg">
<path d="M10.8102 10.7363C11.0489 10.7363 11.2424 10.5477 11.2424 10.315V3.04661C11.2424 2.33051 11.823 1.75 12.5391 1.75C13.2552 1.75 13.8357 2.33051 13.8357 3.04661V10.315C13.8357 10.5477 14.0292 10.7363 14.2679 10.7363C14.5066 10.7363 14.7001 10.5477 14.7001 10.315V5.11454C14.7001 4.39845 15.2806 3.81793 15.9967 3.81793C16.7128 3.81793 17.2933 4.39845 17.2933 5.11454V11.4383C17.2933 11.671 17.4868 11.8596 17.7255 11.8596C17.9642 11.8596 18.1577 11.671 18.1577 11.4383V6.92354C18.1577 6.27646 18.6823 5.7519 19.3293 5.7519C19.9764 5.7519 20.501 6.27646 20.501 6.92353L20.501 14.5119C20.5013 16.3578 20.5015 17.4881 20.1649 18.4223C19.5741 20.0616 18.263 21.3455 16.6037 21.922C15.6584 22.2505 14.514 22.2503 12.6278 22.25C11.566 22.2501 10.6517 22.2502 10.0423 22.1209C8.97722 21.8949 7.99629 21.38 7.21148 20.6328C6.76222 20.205 6.40122 19.6732 5.81333 18.8071L5.17675 17.8695C4.68997 17.1526 4.29442 16.57 4.01858 16.0648C3.73202 15.54 3.54067 15.0402 3.50748 14.4817C3.48847 14.1616 3.51118 13.8405 3.57504 13.5262C3.68642 12.978 3.94599 12.5095 4.30336 12.029C4.63558 11.5823 5.14787 11.0165 5.7076 10.3984L5.90489 10.209C6.33874 9.79247 6.55566 9.58421 6.73804 9.66194C6.92041 9.73968 6.92041 10.0404 6.92041 10.6418V14.2465C6.92041 14.4792 7.11391 14.6678 7.35261 14.6678C7.59131 14.6678 7.78482 14.4792 7.78482 14.2465V5.04661C7.78482 4.33051 8.36533 3.75 9.08143 3.75C9.79753 3.75 10.378 4.33051 10.378 5.04661V10.315C10.378 10.5477 10.5715 10.7363 10.8102 10.7363Z" fill="#34C759"/>
</svg>
