<svg width="19" height="16" viewBox="0 0 19 16" fill="none" xmlns="http://www.w3.org/2000/svg">
<path d="M2.0625 10.7468C1.35417 9.82683 1 9.366 1 8.00016C1 6.6335 1.35417 6.17433 2.0625 5.2535C3.47667 3.41683 5.84833 1.3335 9.33333 1.3335C12.8183 1.3335 15.19 3.41683 16.6042 5.2535C17.3125 6.17516 17.6667 6.63433 17.6667 8.00016C17.6667 9.36683 17.3125 9.82599 16.6042 10.7468C15.19 12.5835 12.8183 14.6668 9.33333 14.6668C5.84833 14.6668 3.47667 12.5835 2.0625 10.7468Z" stroke="#7F7F7F" stroke-width="1.5"/>
<path d="M11.833 8C11.833 8.66304 11.5696 9.29893 11.1008 9.76777C10.6319 10.2366 9.99605 10.5 9.33301 10.5C8.66997 10.5 8.03408 10.2366 7.56524 9.76777C7.0964 9.29893 6.83301 8.66304 6.83301 8C6.83301 7.33696 7.0964 6.70107 7.56524 6.23223C8.03408 5.76339 8.66997 5.5 9.33301 5.5C9.99605 5.5 10.6319 5.76339 11.1008 6.23223C11.5696 6.70107 11.833 7.33696 11.833 8Z" stroke="#7F7F7F" stroke-width="1.5"/>
</svg>
