<svg width="26" height="26" viewBox="0 0 26 26" fill="none" xmlns="http://www.w3.org/2000/svg">
<path d="M5.8 13H3.4C2.76348 13 2.15303 13.2529 1.70294 13.7029C1.25286 14.153 1 14.7635 1 15.4V22.6C1 23.2365 1.25286 23.847 1.70294 24.2971C2.15303 24.7471 2.76348 25 3.4 25H5.8" stroke="#A30552" stroke-width="2" stroke-linecap="round" stroke-linejoin="round"/>
<path d="M5.7998 25V3.4C5.7998 2.76348 6.05266 2.15303 6.50275 1.70294C6.95284 1.25286 7.56328 1 8.1998 1H17.7998C18.4363 1 19.0468 1.25286 19.4969 1.70294C19.9469 2.15303 20.1998 2.76348 20.1998 3.4V25H5.7998Z" stroke="#A30552" stroke-width="2" stroke-linecap="round" stroke-linejoin="round"/>
<path d="M20.2002 9.3999H22.6002C23.2367 9.3999 23.8472 9.65276 24.2972 10.1028C24.7473 10.5529 25.0002 11.1634 25.0002 11.7999V22.5999C25.0002 23.2364 24.7473 23.8469 24.2972 24.297C23.8472 24.747 23.2367 24.9999 22.6002 24.9999H20.2002" stroke="#A30552" stroke-width="2" stroke-linecap="round" stroke-linejoin="round"/>
<path d="M10.8398 5.56006H15.6398" stroke="#A30552" stroke-width="2" stroke-linecap="round" stroke-linejoin="round"/>
<path d="M10.8398 10.3599H15.6398" stroke="#A30552" stroke-width="2" stroke-linecap="round" stroke-linejoin="round"/>
<path d="M10.8398 15.1602H15.6398" stroke="#A30552" stroke-width="2" stroke-linecap="round" stroke-linejoin="round"/>
<path d="M10.8398 19.96H15.6398" stroke="#A30552" stroke-width="2" stroke-linecap="round" stroke-linejoin="round"/>
</svg>
