<svg width="20" height="20" viewBox="0 0 20 20" fill="none" xmlns="http://www.w3.org/2000/svg">
<g clip-path="url(#clip0_1028_4465)">
<path d="M8.33301 15L11.6663 15" stroke="black" stroke-width="1.5" stroke-linecap="round" stroke-linejoin="round"/>
<path d="M1.95884 11.0115C1.66466 9.09719 1.51757 8.14002 1.87949 7.29147C2.24141 6.44292 3.04437 5.86235 4.6503 4.70121L5.85017 3.83366C7.84792 2.38921 8.8468 1.66699 9.99935 1.66699C11.1519 1.66699 12.1508 2.38921 14.1485 3.83366L15.3484 4.70121C16.9543 5.86235 17.7573 6.44292 18.1192 7.29147C18.4811 8.14002 18.334 9.09719 18.0399 11.0115L17.789 12.644C17.372 15.3578 17.1634 16.7147 16.1902 17.5242C15.2169 18.3337 13.7941 18.3337 10.9484 18.3337H9.05034C6.20463 18.3337 4.78177 18.3337 3.80851 17.5242C2.83526 16.7147 2.62674 15.3578 2.2097 12.644L1.95884 11.0115Z" stroke="black" stroke-width="1.5" stroke-linejoin="round"/>
</g>
<defs>
<clipPath id="clip0_1028_4465">
<rect width="20" height="20" fill="white"/>
</clipPath>
</defs>
</svg>
