<svg width="21" height="20" viewBox="0 0 21 20" fill="none" xmlns="http://www.w3.org/2000/svg">
<path d="M10.6656 1.66699C8.29101 1.66699 6.75135 3.34949 4.93045 3.96274C4.19006 4.2121 3.81986 4.33678 3.67005 4.51253C3.52023 4.68829 3.47636 4.94512 3.38861 5.45877C2.4497 10.9553 4.50191 16.037 9.39617 18.0149C9.92203 18.2274 10.185 18.3337 10.6682 18.3337C11.1514 18.3337 11.4143 18.2274 11.9401 18.0149C16.834 16.0369 18.8843 10.9553 17.9451 5.45876C17.8573 4.94502 17.8135 4.68816 17.6636 4.5124C17.5138 4.33664 17.1436 4.21203 16.4032 3.96281C14.5816 3.34961 13.0402 1.66699 10.6656 1.66699Z" stroke="#A30552" stroke-linecap="round" stroke-linejoin="round"/>
<path d="M16.8539 4.52055C17.0491 4.32528 17.0491 4.0087 16.8539 3.81344C16.6586 3.61818 16.342 3.61818 16.1468 3.81344L16.5003 4.16699L16.8539 4.52055ZM5.31344 14.6468C5.11818 14.842 5.11818 15.1586 5.31344 15.3539C5.5087 15.5491 5.82528 15.5491 6.02055 15.3539L5.66699 15.0003L5.31344 14.6468ZM16.5003 4.16699L16.1468 3.81344L5.31344 14.6468L5.66699 15.0003L6.02055 15.3539L16.8539 4.52055L16.5003 4.16699Z" fill="#A30552"/>
</svg>
