<svg width="16" height="16" viewBox="0 0 16 16" fill="none" xmlns="http://www.w3.org/2000/svg">
<path d="M12.7945 6.29445L11.4843 4.97965C10.5403 4.03232 10.1703 3.52271 9.65908 3.70287C9.02165 3.92751 9.23149 5.34494 9.23149 5.82346C8.24045 5.82346 7.21011 5.73538 6.23323 5.91891C3.00839 6.52475 2 9.14387 2 12.0003C2.91273 11.3538 3.82456 10.665 4.92155 10.3654C6.29091 9.99131 7.82026 10.1698 9.23149 10.1698C9.23149 10.6483 9.02165 12.0658 9.65908 12.2904C10.2383 12.4945 10.5403 11.9609 11.4843 11.0136L12.7945 9.69882C13.5982 8.89235 14 8.48911 14 7.99663C14 7.50416 13.5982 7.10092 12.7945 6.29445Z" stroke="#111113" stroke-linecap="round" stroke-linejoin="round"/>
</svg>
