<svg width="16" height="16" viewBox="0 0 16 16" fill="none" xmlns="http://www.w3.org/2000/svg">
<path d="M12.0003 12C12.8301 12.2829 13.3337 12.6546 13.3337 13.0616C13.3337 13.9481 10.9458 14.6667 8.00033 14.6667C5.05481 14.6667 2.66699 13.9481 2.66699 13.0616C2.66699 12.6546 3.17051 12.2829 4.00033 12" stroke="#111113" stroke-linecap="round"/>
<path d="M10 6.33301C10 7.43758 9.10457 8.33301 8 8.33301C6.89543 8.33301 6 7.43758 6 6.33301C6 5.22844 6.89543 4.33301 8 4.33301C9.10457 4.33301 10 5.22844 10 6.33301Z" stroke="#111113"/>
<path d="M8 1.33301C10.7059 1.33301 13 3.61836 13 6.39094C13 9.20768 10.6685 11.1843 8.515 12.5285C8.35806 12.6188 8.18058 12.6663 8 12.6663C7.81942 12.6663 7.64194 12.6188 7.485 12.5285C5.3355 11.1712 3 9.21741 3 6.39094C3 3.61836 5.29413 1.33301 8 1.33301Z" stroke="#111113"/>
</svg>
