<svg width="20" height="20" viewBox="0 0 20 20" fill="none" xmlns="http://www.w3.org/2000/svg">
<g clip-path="url(#clip0_1028_4617)">
<path d="M14.9993 9.1701C14.5132 8.2642 13.5602 7.63146 12.4593 7.58275C11.2302 7.52837 9.98171 7.5 8.60683 7.5C7.23194 7.5 5.98344 7.52837 4.75438 7.58275C3.29375 7.64738 2.09347 8.74007 1.89837 10.1348C1.77104 11.0451 1.66602 11.9779 1.66602 12.9278C1.66602 13.8778 1.77104 14.8106 1.89837 15.7209C2.09348 17.1156 3.29375 18.2083 4.75438 18.2729C5.34945 18.2992 6.04969 18.3195 6.66602 18.3333" stroke="#A30552" stroke-width="1.5" stroke-linecap="round"/>
<path d="M5 7.50033V5.41699C5 3.34592 6.67893 1.66699 8.75 1.66699C10.8211 1.66699 12.5 3.34592 12.5 5.41699V7.50033" stroke="#A30552" stroke-width="1.5" stroke-linecap="round" stroke-linejoin="round"/>
<path d="M17.6698 12.5874L17.1444 13.1226L17.1444 13.1226L17.6698 12.5874ZM17.8072 13.7735C18.1028 14.0637 18.5776 14.0593 18.8678 13.7638C19.158 13.4682 19.1537 12.9934 18.8581 12.7031L18.3327 13.2383L17.8072 13.7735ZM15.0184 12.5874L14.4929 12.0523L14.4929 12.0523L15.0184 12.5874ZM15.1558 15.0752C15.4513 15.3654 15.9262 15.361 16.2164 15.0655C16.5066 14.7699 16.5023 14.2951 16.2067 14.0049L15.6812 14.54L15.1558 15.0752ZM12.3666 17.7945L11.8411 17.2593C11.4007 17.6918 10.681 17.6918 10.2406 17.2593L9.71515 17.7945L9.18968 18.3296C10.2136 19.335 11.8681 19.335 12.8921 18.3296L12.3666 17.7945ZM9.71515 17.7945L10.2406 17.2593C9.80782 16.8344 9.80782 16.1512 10.2406 15.7262L9.71515 15.191L9.18968 14.6559C8.15813 15.6688 8.15813 17.3167 9.18968 18.3296L9.71515 17.7945ZM9.71515 15.191L10.2406 15.7262C10.681 15.2937 11.4007 15.2937 11.8411 15.7262L12.3666 15.191L12.8921 14.6559C11.8681 13.6505 10.2136 13.6505 9.18968 14.6559L9.71515 15.191ZM12.3666 15.191L11.8411 15.7262C12.2739 16.1512 12.2739 16.8344 11.8411 17.2593L12.3666 17.7945L12.8921 18.3296C13.9236 17.3167 13.9236 15.6688 12.8921 14.6559L12.3666 15.191ZM17.6698 12.5874L17.1444 13.1226L17.8072 13.7735L18.3327 13.2383L18.8581 12.7031L18.1953 12.0523L17.6698 12.5874ZM12.3666 15.191L12.892 15.7262L14.881 13.7735L14.3555 13.2383L13.8301 12.7031L11.8412 14.6559L12.3666 15.191ZM14.3555 13.2383L14.881 13.7735L15.5438 13.1226L15.0184 12.5874L14.4929 12.0523L13.8301 12.7031L14.3555 13.2383ZM14.3555 13.2383L13.8301 13.7735L15.1558 15.0752L15.6812 14.54L16.2067 14.0049L14.881 12.7031L14.3555 13.2383ZM17.6698 12.5874L18.1953 12.0523C17.8978 11.7602 17.6223 11.4874 17.3679 11.2969C17.0957 11.0929 16.764 10.917 16.3441 10.917V11.667V12.417C16.3125 12.417 16.3312 12.3945 16.4685 12.4973C16.6237 12.6136 16.8169 12.801 17.1444 13.1226L17.6698 12.5874ZM15.0184 12.5874L15.5438 13.1226C15.8713 12.801 16.0645 12.6136 16.2197 12.4973C16.357 12.3945 16.3757 12.417 16.3441 12.417V11.667V10.917C15.9242 10.917 15.5925 11.0929 15.3203 11.2969C15.0659 11.4874 14.7904 11.7602 14.4929 12.0523L15.0184 12.5874Z" fill="#A30552"/>
</g>
<defs>
<clipPath id="clip0_1028_4617">
<rect width="20" height="20" fill="white"/>
</clipPath>
</defs>
</svg>
