<svg width="32" height="32" viewBox="0 0 32 32" fill="none" xmlns="http://www.w3.org/2000/svg">
<path d="M2.66699 13.3335C2.66699 8.91064 6.24414 5.3335 10.667 5.3335L9.52414 7.61921" stroke="#34C759" stroke-width="2.5" stroke-linecap="round" stroke-linejoin="round"/>
<path d="M29.334 18.667C29.334 23.0898 25.7568 26.667 21.334 26.667L22.4768 24.3813" stroke="#34C759" stroke-width="2.5" stroke-linecap="round" stroke-linejoin="round"/>
<path d="M23 3.35445C25.4404 2.34817 27.5886 2.68321 28.7535 2.89678C29.0851 2.95758 29.3333 3.28274 29.3333 3.66071V12.2727C29.3333 12.7241 28.984 13.0608 28.5876 12.9907C27.3916 12.7792 25.3288 12.518 23 13.4783C20.4961 14.5108 17.976 14.705 16.6007 14.6614C16.2585 14.6506 16 14.3279 16 13.9428V5.32655C16 4.88261 16.3403 4.53337 16.7349 4.54098C18.1357 4.568 20.5754 4.3542 23 3.35445Z" stroke="#34C759" stroke-width="2.5" stroke-linecap="round" stroke-linejoin="round"/>
<path d="M9.66699 18.021C12.1074 17.0147 14.2556 17.3497 15.4205 17.5633C15.7521 17.6241 16.0003 17.9492 16.0003 18.3272V26.9392C16.0003 27.3906 15.651 27.7273 15.2546 27.6572C14.0586 27.4457 11.9958 27.1845 9.66699 28.1448C7.16307 29.1773 4.64296 29.3715 3.26768 29.3279C2.92551 29.3171 2.66699 28.9944 2.66699 28.6093V19.9931C2.66699 19.5491 3.00732 19.1999 3.40188 19.2075C4.8027 19.2345 7.24244 19.0207 9.66699 18.021Z" stroke="#34C759" stroke-width="2.5" stroke-linecap="round" stroke-linejoin="round"/>
<path d="M22.6667 8.66699H22.6787" stroke="#34C759" stroke-width="3" stroke-linecap="round" stroke-linejoin="round"/>
<path d="M9.33373 23.3335H9.3457" stroke="#34C759" stroke-width="3" stroke-linecap="round" stroke-linejoin="round"/>
</svg>
