<svg width="32" height="32" viewBox="0 0 32 32" fill="none" xmlns="http://www.w3.org/2000/svg">
<path d="M16 29.333C14.9091 29.333 13.8669 28.8928 11.7826 28.0123C6.59419 25.8206 4 24.7247 4 22.8814C4 22.3653 4 13.419 4 9.33301M16 29.333C17.0909 29.333 18.1331 28.8928 20.2174 28.0123C25.4058 25.8206 28 24.7247 28 22.8814V9.33301M16 29.333L16 15.1395" stroke="#354D0C" stroke-width="2.5" stroke-linecap="round" stroke-linejoin="round"/>
<path d="M11.1012 12.9217L7.20629 11.037C5.06876 10.0026 4 9.48548 4 8.6665C4 7.84753 5.06876 7.33037 7.20629 6.29604L11.1012 4.41133C13.5051 3.24811 14.7071 2.6665 16 2.6665C17.2929 2.6665 18.4949 3.24811 20.8988 4.41132L24.7937 6.29604C26.9312 7.33037 28 7.84753 28 8.6665C28 9.48548 26.9312 10.0026 24.7937 11.037L20.8988 12.9217C18.4949 14.0849 17.2929 14.6665 16 14.6665C14.7071 14.6665 13.5051 14.0849 11.1012 12.9217Z" stroke="#354D0C" stroke-width="2.5" stroke-linecap="round" stroke-linejoin="round"/>
<path d="M8 16L10.6667 17.3333" stroke="#354D0C" stroke-width="2.5" stroke-linecap="round" stroke-linejoin="round"/>
<path d="M22.6663 5.33301L9.33301 11.9997" stroke="#354D0C" stroke-width="2.5" stroke-linecap="round" stroke-linejoin="round"/>
</svg>
