<svg width="16" height="16" viewBox="0 0 16 16" fill="none" xmlns="http://www.w3.org/2000/svg">
<path opacity="0.4" fill-rule="evenodd" clip-rule="evenodd" d="M1.5 4.3337V11.4412C1.5 12.1882 2.0449 12.6849 2.71555 13.0874C3.39448 13.4948 4.53402 13.9761 5.79609 14.5093C6.74211 14.9092 7.35197 15.167 8 15.167C8.64802 15.167 9.25788 14.9092 10.2039 14.5093C11.4659 13.9762 12.6055 13.4948 13.2844 13.0874C13.9551 12.6849 14.5 12.1882 14.5 11.4412V4.3337C14.5 3.80317 14.1232 3.47747 13.8231 3.27902C13.5233 3.08082 13.0973 2.87905 12.6142 2.65021L10.5394 1.66727C9.49633 1.1725 8.78164 0.833496 8 0.833496C7.21836 0.833496 6.50367 1.1725 5.46059 1.66727L3.38585 2.6502C2.90268 2.87904 2.47666 3.08082 2.17694 3.27902C1.87685 3.47747 1.5 3.80317 1.5 4.3337ZM5.89502 2.87546C7.12318 2.29363 7.55358 2.10624 8.00005 2.10624C8.40874 2.10624 8.80395 2.26326 9.80991 2.73609L12.0039 3.77498C12.5443 4.03102 12.8829 4.19323 13.0952 4.33351C12.8829 4.4738 12.5443 4.63601 12.0039 4.89205L10.1051 5.79157C8.87692 6.3734 8.44652 6.56079 8.00005 6.56079C7.59136 6.56079 7.19615 6.40377 6.19019 5.93094L3.99624 4.89205C3.45577 4.63601 3.11718 4.4738 2.90495 4.33351C3.11718 4.19323 3.45577 4.03102 3.99624 3.77498L5.89502 2.87546Z" fill="#1A73E8"/>
<path fill-rule="evenodd" clip-rule="evenodd" d="M3.5529 7.7765C3.67639 7.52951 3.97673 7.4294 4.22372 7.5529L5.55705 8.21956C5.80404 8.34306 5.90415 8.64339 5.78066 8.89038C5.65716 9.13737 5.35683 9.23748 5.10984 9.11399L3.7765 8.44732C3.52951 8.32383 3.4294 8.02349 3.5529 7.7765Z" fill="#1A73E8"/>
<path d="M4.71191 5.23256L9.80937 2.7373L11.2871 3.4369L6.18964 5.93215L4.71191 5.23256Z" fill="#1A73E8"/>
</svg>
