<svg width="24" height="24" viewBox="0 0 24 24" fill="none" xmlns="http://www.w3.org/2000/svg">
<path d="M22.6769 15.3746C22.8842 15.8865 22.6371 16.4695 22.1252 16.6767C21.6912 16.8524 21.1671 17.2423 20.5953 17.8155C20.0363 18.3757 19.4908 19.0505 19.0062 19.7144C18.5237 20.3755 18.1135 21.0091 17.8237 21.4784C17.6791 21.7125 17.452 22.1018 17.3749 22.234L17.374 22.2356C17.1893 22.5678 16.8322 22.7667 16.4525 22.7487C16.0728 22.7306 15.7362 22.4989 15.5838 22.1506C15.1932 21.2577 14.847 20.9142 14.6908 20.7952C14.6519 20.7655 14.6231 20.7485 14.606 20.7395C14.1219 20.6696 13.75 20.2531 13.75 19.7498C13.75 19.1975 14.1977 18.7498 14.75 18.7498C14.957 18.7498 15.1093 18.7973 15.2108 18.8304C15.4156 18.8973 15.6519 19.0131 15.9029 19.2043C16.1038 19.3574 16.3093 19.5549 16.5147 19.8082C16.766 19.4219 17.0621 18.9855 17.3908 18.5352C17.9099 17.824 18.5225 17.0613 19.1795 16.4028C19.8237 15.7572 20.5735 15.1472 21.3748 14.8228C21.8867 14.6156 22.4697 14.8626 22.6769 15.3746Z" fill="#A30552"/>
<path opacity="0.4" fill-rule="evenodd" clip-rule="evenodd" d="M13.6989 22.0184C12.8431 21.6213 12.25 20.7557 12.25 19.7498C12.25 18.3691 13.3693 17.2498 14.75 17.2498C15.198 17.2498 15.5315 17.3572 15.6764 17.4045C15.8478 17.4605 16.0228 17.5328 16.1994 17.6233C16.7406 16.8838 17.3962 16.0665 18.1176 15.3434C18.803 14.6565 19.7001 13.898 20.75 13.458V6.49982C20.75 5.70402 20.1847 5.21547 19.7346 4.9178C19.285 4.62051 18.646 4.31786 17.9213 3.97461L14.8091 2.50018C13.2445 1.75801 12.1725 1.24951 11 1.24951C9.82754 1.24951 8.75551 1.75801 7.19088 2.50018L4.07878 3.97456C3.35402 4.31783 2.715 4.62049 2.26541 4.9178C1.81527 5.21547 1.25 5.70402 1.25 6.49982V17.1611C1.25 18.2815 2.06734 19.0266 3.07333 19.6303C4.09172 20.2414 5.80103 20.9635 7.69413 21.7632C9.11317 22.3631 10.028 22.7498 11 22.7498C11.8261 22.7498 12.6109 22.4705 13.6989 22.0184ZM11.0001 3.15863C10.3304 3.15863 9.68477 3.43971 7.84253 4.31246L4.99436 5.66174C4.18366 6.0458 3.67577 6.28911 3.35742 6.49954C3.67577 6.70997 4.18366 6.95328 4.99436 7.33734L8.28528 8.89567C9.79422 9.60493 10.387 9.84045 11.0001 9.84045C11.6698 9.84045 12.3154 9.55936 14.1576 8.68662L17.0058 7.33734C17.8165 6.95328 18.3244 6.70997 18.6427 6.49954C18.3244 6.28911 17.8165 6.0458 17.0058 5.66174L13.7149 4.1034C12.2059 3.39415 11.6131 3.15863 11.0001 3.15863Z" fill="#A30552"/>
<path fill-rule="evenodd" clip-rule="evenodd" d="M4.32934 11.6648C4.51459 11.2943 4.96509 11.1441 5.33557 11.3293L7.33557 12.3293C7.70606 12.5146 7.85623 12.9651 7.67098 13.3356C7.48574 13.7061 7.03524 13.8562 6.66475 13.671L4.66475 12.671C4.29427 12.4857 4.1441 12.0352 4.32934 11.6648Z" fill="#A30552"/>
<path d="M6.06836 7.84835L13.7145 4.10547L15.9311 5.15485L8.28495 8.89774L6.06836 7.84835Z" fill="#A30552"/>
</svg>
