<svg width="20" height="20" viewBox="0 0 20 20" fill="none" xmlns="http://www.w3.org/2000/svg">
<g clip-path="url(#clip0_1028_4548)">
<path d="M9.16797 18.3335C8.48615 18.3335 7.83479 18.0583 6.53207 17.508C3.28934 16.1382 1.66797 15.4533 1.66797 14.3012C1.66797 13.9787 1.66797 8.38726 1.66797 5.8335M9.16797 18.3335L9.16797 9.46253M9.16797 18.3335C9.45165 18.3335 9.70653 18.2859 10.0013 18.1906M16.668 5.8335V9.5835" stroke="#FBBC04" stroke-width="1.5" stroke-linecap="round" stroke-linejoin="round"/>
<path d="M15.0013 15.0008L15.756 14.246M18.3346 15.0003C18.3346 13.1594 16.8423 11.667 15.0013 11.667C13.1604 11.667 11.668 13.1594 11.668 15.0003C11.668 16.8413 13.1604 18.3337 15.0013 18.3337C16.8423 18.3337 18.3346 16.8413 18.3346 15.0003Z" stroke="#FBBC04" stroke-width="1.5" stroke-linecap="round" stroke-linejoin="round"/>
<path d="M6.10623 8.07648L3.6719 6.89853C2.33595 6.25208 1.66797 5.92885 1.66797 5.41699C1.66797 4.90513 2.33595 4.58191 3.6719 3.93545L6.10623 2.75751C7.60866 2.0305 8.35988 1.66699 9.16797 1.66699C9.97606 1.66699 10.7273 2.0305 12.2297 2.7575L14.664 3.93545C16 4.58191 16.668 4.90513 16.668 5.41699C16.668 5.92885 16 6.25208 14.664 6.89853L12.2297 8.07648C10.7273 8.80349 9.97606 9.16699 9.16797 9.16699C8.35988 9.16699 7.60866 8.80349 6.10623 8.07648Z" stroke="#FBBC04" stroke-width="1.5" stroke-linecap="round" stroke-linejoin="round"/>
<path d="M4.16797 10L5.83464 10.8333" stroke="#FBBC04" stroke-width="1.5" stroke-linecap="round" stroke-linejoin="round"/>
<path d="M13.3353 3.3335L5.00195 7.50016" stroke="#FBBC04" stroke-width="1.5" stroke-linecap="round" stroke-linejoin="round"/>
</g>
<defs>
<clipPath id="clip0_1028_4548">
<rect width="20" height="20" fill="white" transform="translate(0.000976562)"/>
</clipPath>
</defs>
</svg>
