<svg width="24" height="24" viewBox="0 0 24 24" fill="none" xmlns="http://www.w3.org/2000/svg">
<path opacity="0.4" d="M4.26193 7.58959C4.28741 7.572 4.31838 7.55173 4.35579 7.52874C4.67415 7.33317 5.18221 7.10706 5.99328 6.75011L7.54868 6.06557C8.03366 5.85213 8.23713 5.32049 8.00313 4.8781C7.76914 4.43572 7.1863 4.25012 6.70132 4.46356L5.14592 5.14809C4.42114 5.467 3.71606 5.77723 3.2665 6.05341C2.81708 6.32951 2.25 6.78375 2.25 7.52564V17.3006C2.25 18.4201 3.06888 19.1635 4.07416 19.765C5.0925 20.3742 6.80139 21.094 8.69452 21.8914C10.1139 22.4897 11.0284 22.8752 12 22.8752C12.9716 22.8752 13.8861 22.4897 15.3055 21.8914C17.1986 21.094 18.9075 20.3742 19.9258 19.765C20.9311 19.1635 21.75 18.4201 21.75 17.3006V7.52564C21.75 6.78375 21.1829 6.32951 20.7335 6.05341C20.2839 5.77724 19.645 5.49609 18.9202 5.17719L17.2987 4.46356C16.8137 4.25012 16.2309 4.43572 15.9969 4.8781C15.7629 5.32049 15.9663 5.85214 16.4513 6.06557L18.0067 6.75011C18.8178 7.10706 19.3259 7.33316 19.6442 7.52874C19.6816 7.55173 19.7126 7.572 19.7381 7.5896C19.7844 7.62154 19.8115 7.6737 19.8254 7.72818C19.8546 7.84259 19.8247 7.9716 19.7223 8.03055C19.3826 8.22627 18.9121 8.45458 18.2694 8.76468L15.3482 10.1741C13.4806 11.0752 12.7582 11.4044 12 11.4044C11.2418 11.4044 10.5195 11.0752 8.65182 10.1741L5.73062 8.76468C5.08791 8.45458 4.61737 8.22627 4.27766 8.03056C4.17534 7.97161 4.14539 7.8426 4.1746 7.72818C4.18851 7.6737 4.21565 7.62153 4.26193 7.58959Z" fill="#682476"/>
<path fill-rule="evenodd" clip-rule="evenodd" d="M5.32895 12.8179C5.51376 12.4472 5.96409 12.2965 6.33479 12.4813L8.33479 13.4784C8.70549 13.6632 8.85619 14.1135 8.67138 14.4842C8.48657 14.8549 8.03624 15.0056 7.66554 14.8208L5.66554 13.8237C5.29484 13.6389 5.14414 13.1886 5.32895 12.8179Z" fill="#682476"/>
<path fill-rule="evenodd" clip-rule="evenodd" d="M14.7071 1.41789C15.0976 1.80842 15.0976 2.44158 14.7071 2.83211L13.4142 4.125L14.7071 5.41789C15.0976 5.80842 15.0976 6.44158 14.7071 6.83211C14.3166 7.22263 13.6834 7.22263 13.2929 6.83211L12 5.53921L10.7071 6.83211C10.3166 7.22263 9.68342 7.22263 9.29289 6.83211C8.90237 6.44158 8.90237 5.80842 9.29289 5.41789L10.5858 4.125L9.29289 2.83211C8.90237 2.44158 8.90237 1.80842 9.29289 1.41789C9.68342 1.02737 10.3166 1.02737 10.7071 1.41789L12 2.71079L13.2929 1.41789C13.6834 1.02737 14.3166 1.02737 14.7071 1.41789Z" fill="#682476"/>
</svg>
