<svg width="20" height="20" viewBox="0 0 20 20" fill="none" xmlns="http://www.w3.org/2000/svg">
<path d="M17.501 5.83301V9.99967M2.50098 5.83301C2.50098 8.38677 2.50098 13.9782 2.50098 14.3007C2.50098 15.4528 4.12235 16.1377 7.36508 17.5076C8.6678 18.0579 9.31916 18.333 10.001 18.333L10.001 9.46204" stroke="#34C759" stroke-width="1.5" stroke-linecap="round" stroke-linejoin="round"/>
<path d="M12.501 15.8333C12.501 15.8333 13.2301 15.8333 13.9593 17.5C13.9593 17.5 16.2755 13.3333 18.3343 12.5" stroke="#34C759" stroke-width="1.5" stroke-linecap="round" stroke-linejoin="round"/>
<path d="M6.93924 8.07599L4.50491 6.89804C3.16895 6.25159 2.50098 5.92836 2.50098 5.4165C2.50098 4.90464 3.16895 4.58142 4.50491 3.93497L6.93924 2.75702C8.44167 2.03001 9.19289 1.6665 10.001 1.6665C10.8091 1.6665 11.5603 2.03001 13.0627 2.75702L15.497 3.93496C16.833 4.58142 17.501 4.90464 17.501 5.4165C17.501 5.92836 16.833 6.25159 15.497 6.89804L13.0627 8.07599C11.5603 8.803 10.8091 9.1665 10.001 9.1665C9.19289 9.1665 8.44167 8.803 6.93924 8.07599Z" stroke="#34C759" stroke-width="1.5" stroke-linecap="round" stroke-linejoin="round"/>
<path d="M5.00098 10L6.66764 10.8333" stroke="#34C759" stroke-width="1.5" stroke-linecap="round" stroke-linejoin="round"/>
<path d="M14.1673 3.33301L5.83398 7.49967" stroke="#34C759" stroke-width="1.5" stroke-linecap="round" stroke-linejoin="round"/>
</svg>
