<svg width="24" height="24" viewBox="0 0 24 24" fill="none" xmlns="http://www.w3.org/2000/svg">
<path opacity="0.4" d="M8.31222 8.31966C7.45604 9.65764 7.1132 10.2063 6.93574 10.817C6.75786 11.429 6.751 12.0865 6.751 13.6944V22C6.751 22.4142 6.41521 22.75 6.00099 22.75C5.58678 22.75 5.25099 22.4142 5.25099 22L5.25099 13.576C5.25081 12.1234 5.25071 11.2401 5.49533 10.3984C5.74034 9.55532 6.21213 8.81825 6.98558 7.60989L9.73523 3.31295C10.0857 2.7652 10.3927 2.28538 10.6839 1.9496C10.9901 1.59664 11.4074 1.25 12.001 1.25C12.5946 1.25 13.0119 1.59664 13.3181 1.9496C13.6093 2.28539 13.9163 2.7652 14.2668 3.31296L17.0164 7.6099C17.7899 8.81825 18.2616 9.55532 18.5067 10.3984C18.7513 11.2401 18.7512 12.1234 18.751 13.576L18.751 22C18.751 22.4142 18.4152 22.75 18.001 22.75C17.5868 22.75 17.251 22.4142 17.251 22V13.6944C17.251 12.0865 17.2441 11.429 17.0663 10.817C16.8888 10.2063 16.5459 9.65764 15.6898 8.31966L14.1929 5.9805C14.101 5.83688 13.9423 5.75 13.7718 5.75H10.2302C10.0597 5.75 9.90097 5.83688 9.80907 5.9805L8.31222 8.31966Z" fill="#320C68"/>
<path d="M11.251 11.2253C11.251 10.876 11.251 10.7013 11.12 10.612C10.989 10.5227 10.8381 10.5819 10.5361 10.7003C10.393 10.7564 10.2592 10.814 10.1352 10.8675L10.0755 10.8932C9.55173 11.1182 9.18236 11.2626 8.75755 11.251C8.44845 11.2425 8.08315 11.1335 7.66069 10.9527C7.45444 10.8645 7.24895 10.7657 7.03987 10.6635L6.9453 10.6172C6.77092 10.5317 6.59039 10.4432 6.42088 10.3669C6.21002 10.272 5.96717 10.2796 5.76271 10.3876C5.55825 10.4957 5.41506 10.692 5.37462 10.9196C5.25088 11.6163 5.25092 12.4283 5.25098 13.6185L5.25098 22.0016C5.25098 22.4158 5.58677 22.7516 6.00098 22.7516H10.651C10.9338 22.7516 11.0752 22.7516 11.1631 22.6637C11.251 22.5759 11.251 22.4344 11.251 22.1516L11.251 11.2253Z" fill="#320C68"/>
<path d="M12.751 22.1516C12.751 22.4344 12.751 22.5759 12.8388 22.6637C12.9267 22.7516 13.0681 22.7516 13.351 22.7516H18.001C18.4152 22.7516 18.751 22.4158 18.751 22.0016L18.751 13.6184C18.751 12.4282 18.7511 11.6163 18.6273 10.9196C18.5869 10.692 18.4437 10.4957 18.2393 10.3876C18.0348 10.2796 17.7919 10.272 17.5811 10.3669C17.4116 10.4432 17.231 10.5317 17.0566 10.6172L16.9621 10.6635C16.753 10.7657 16.5475 10.8645 16.3413 10.9527C15.9188 11.1335 15.5535 11.2425 15.2444 11.251C14.8196 11.2626 14.4502 11.1182 13.9265 10.8932L13.8668 10.8675C13.7427 10.814 13.609 10.7564 13.4658 10.7003C13.1639 10.5819 13.0129 10.5227 12.8819 10.612C12.751 10.7013 12.751 10.876 12.751 11.2253L12.751 22.1516Z" fill="#320C68"/>
</svg>
