<svg width="24" height="24" viewBox="0 0 24 24" fill="none" xmlns="http://www.w3.org/2000/svg">
<path d="M12 2C17.5228 2 22 6.47715 22 12C22 17.5228 17.5228 22 12 22C6.47715 22 2 17.5228 2 12C2 10.1915 2.4801 8.49505 3.31981 7.03127" stroke="url(#paint0_linear_1028_4512)" stroke-width="1.5" stroke-linecap="round" stroke-linejoin="round"/>
<path d="M5 12C5 15.866 8.13401 19 12 19C15.866 19 19 15.866 19 12C19 8.13401 15.866 5 12 5" stroke="url(#paint1_linear_1028_4512)" stroke-width="1.5" stroke-linecap="round" stroke-linejoin="round"/>
<path d="M12 16C14.2091 16 16 14.2091 16 12C16 9.79086 14.2091 8 12 8" stroke="url(#paint2_linear_1028_4512)" stroke-width="1.5" stroke-linecap="round" stroke-linejoin="round"/>
<defs>
<linearGradient id="paint0_linear_1028_4512" x1="2" y1="12" x2="22" y2="12" gradientUnits="userSpaceOnUse">
<stop stop-color="#7E3BED"/>
<stop offset="0.5" stop-color="#7344C1"/>
<stop offset="0.951923" stop-color="#7E3BED"/>
</linearGradient>
<linearGradient id="paint1_linear_1028_4512" x1="5" y1="12" x2="19" y2="12" gradientUnits="userSpaceOnUse">
<stop stop-color="#7E3BED"/>
<stop offset="0.5" stop-color="#7344C1"/>
<stop offset="0.951923" stop-color="#7E3BED"/>
</linearGradient>
<linearGradient id="paint2_linear_1028_4512" x1="12" y1="12" x2="16" y2="12" gradientUnits="userSpaceOnUse">
<stop stop-color="#7E3BED"/>
<stop offset="0.5" stop-color="#7344C1"/>
<stop offset="0.951923" stop-color="#7E3BED"/>
</linearGradient>
</defs>
</svg>
