<svg width="16" height="16" viewBox="0 0 16 16" fill="none" xmlns="http://www.w3.org/2000/svg">
<path d="M3.33301 6.00016C3.33301 3.80028 3.33301 2.70033 4.01643 2.01691C4.69984 1.3335 5.79979 1.3335 7.99967 1.3335C10.1996 1.3335 11.2995 1.3335 11.9829 2.01691C12.6663 2.70033 12.6663 3.80028 12.6663 6.00016V10.0002C12.6663 12.2001 12.6663 13.3 11.9829 13.9834C11.2995 14.6668 10.1996 14.6668 7.99967 14.6668C5.79979 14.6668 4.69984 14.6668 4.01643 13.9834C3.33301 13.3 3.33301 12.2001 3.33301 10.0002V6.00016Z" stroke="#111113" stroke-linecap="round"/>
<path d="M7.33301 12.6665H8.66634" stroke="#111113" stroke-linecap="round" stroke-linejoin="round"/>
<path d="M6 1.3335L6.05934 1.68951C6.18792 2.46102 6.25221 2.84678 6.51679 3.08152C6.79278 3.32639 7.1841 3.3335 8 3.3335C8.8159 3.3335 9.20721 3.32639 9.48321 3.08152C9.74779 2.84678 9.81208 2.46102 9.94067 1.68951L10 1.3335" stroke="#111113" stroke-linejoin="round"/>
</svg>
