<svg width="21" height="20" viewBox="0 0 21 20" fill="none" xmlns="http://www.w3.org/2000/svg">
<path d="M12.7432 12.917H12.7507M8.58398 12.917H8.59146" stroke="#A30552" stroke-linecap="round" stroke-linejoin="round"/>
<path d="M4.22318 15.704C4.41058 17.0958 5.56344 18.1863 6.96638 18.2508C8.14689 18.305 9.34609 18.3333 10.6667 18.3333C11.9872 18.3333 13.1864 18.305 14.367 18.2508C15.7699 18.1863 16.9228 17.0958 17.1102 15.704C17.2325 14.7956 17.3333 13.8647 17.3333 12.9167C17.3333 11.9686 17.2325 11.0378 17.1102 10.1294C16.9228 8.73752 15.7699 7.64707 14.367 7.58258C13.1864 7.52831 11.9872 7.5 10.6667 7.5C9.34609 7.5 8.14689 7.52831 6.96638 7.58258C5.56344 7.64707 4.41058 8.73752 4.22318 10.1294C4.10087 11.0378 4 11.9686 4 12.9167C4 13.8647 4.10087 14.7956 4.22318 15.704Z" stroke="#A30552"/>
<path d="M6.91699 7.50033V5.41699C6.91699 3.34592 8.59592 1.66699 10.667 1.66699C12.7381 1.66699 14.417 3.34592 14.417 5.41699V7.50033" stroke="#A30552" stroke-linecap="round" stroke-linejoin="round"/>
</svg>
