<svg width="12" height="12" viewBox="0 0 12 12" fill="none" xmlns="http://www.w3.org/2000/svg">
<path d="M4 11C4.27614 11 4.5 10.7761 4.5 10.5C4.5 10.2239 4.27614 10 4 10C3.72386 10 3.5 10.2239 3.5 10.5C3.5 10.7761 3.72386 11 4 11Z" stroke="white" stroke-width="0.875" stroke-linecap="round" stroke-linejoin="round"/>
<path d="M9.5 11C9.77614 11 10 10.7761 10 10.5C10 10.2239 9.77614 10 9.5 10C9.22386 10 9 10.2239 9 10.5C9 10.7761 9.22386 11 9.5 11Z" stroke="white" stroke-width="0.875" stroke-linecap="round" stroke-linejoin="round"/>
<path d="M1.02539 1.0249H2.02539L3.35539 7.2349C3.40418 7.46233 3.53073 7.66564 3.71325 7.80983C3.89577 7.95402 4.12284 8.03008 4.35539 8.0249H9.24539C9.47298 8.02453 9.69363 7.94655 9.8709 7.80382C10.0482 7.66109 10.1715 7.46217 10.2204 7.2399L11.0454 3.5249H2.56039" stroke="white" stroke-width="0.875" stroke-linecap="round" stroke-linejoin="round"/>
</svg>
