<svg width="25" height="24" viewBox="0 0 25 24" fill="none" xmlns="http://www.w3.org/2000/svg">
<g clip-path="url(#clip0_1028_4683)">
<g opacity="0.4">
<path d="M8.17036 13.1474C7.88327 13.3013 7.6019 13.4624 7.39513 13.5902C6.90053 13.8794 5.96891 14.4241 5.29588 15.1082C4.86155 15.5497 4.29059 16.2837 4.18432 17.2933C4.1515 17.605 4.16633 17.9035 4.22003 18.1871C4.27378 18.4708 4.30065 18.6127 4.22885 18.6871C4.15705 18.7616 4.03741 18.7434 3.79813 18.7069C2.77431 18.5511 2.08242 17.993 1.51463 17.3844C1.09007 16.9294 0.870779 16.4061 0.925167 15.8463C0.976232 15.3207 1.25718 14.8975 1.53817 14.5881C1.98165 14.0998 2.63533 13.6859 3.0268 13.4381C3.11044 13.3851 3.18213 13.3397 3.23722 13.3028C4.71464 12.3131 6.47669 12.0212 8.12205 12.4269C8.50995 12.5225 8.7039 12.5704 8.72105 12.7067C8.7382 12.843 8.54892 12.9445 8.17036 13.1474Z" fill="#A30552"/>
<path d="M7.15447 5.28631C7.34417 5.31484 7.43902 5.3291 7.48776 5.4079C7.53649 5.48671 7.50252 5.59136 7.43459 5.80068C7.26092 6.33583 7.16705 6.90695 7.16705 7.5C7.16705 8.73995 7.57737 9.88407 8.26964 10.804C8.40171 10.9795 8.46774 11.0672 8.44739 11.1575C8.42704 11.2478 8.34215 11.2922 8.17236 11.3811C7.72232 11.6167 7.21025 11.75 6.66705 11.75C4.87213 11.75 3.41705 10.2949 3.41705 8.5C3.41705 6.70507 4.87213 5.25 6.66705 5.25C6.83271 5.25 6.99548 5.26239 7.15447 5.28631Z" fill="#A30552"/>
</g>
<g opacity="0.4">
<path d="M17.1641 13.1474C17.4512 13.3013 17.7325 13.4624 17.9393 13.5902C18.4339 13.8794 19.3655 14.4241 20.0385 15.1082C20.4729 15.5497 21.0438 16.2837 21.1501 17.2933C21.1829 17.605 21.1681 17.9035 21.1144 18.1871C21.0606 18.4708 21.0338 18.6127 21.1056 18.6871C21.1774 18.7616 21.297 18.7434 21.5363 18.7069C22.5601 18.5511 23.252 17.993 23.8198 17.3844C24.2444 16.9294 24.4636 16.4061 24.4093 15.8463C24.3582 15.3207 24.0772 14.8975 23.7963 14.5881C23.3528 14.0998 22.6991 13.6859 22.3076 13.4381C22.224 13.3851 22.1523 13.3397 22.0972 13.3028C20.6198 12.3131 18.8577 12.0212 17.2124 12.4269C16.8245 12.5225 16.6305 12.5704 16.6134 12.7067C16.5962 12.843 16.7855 12.9445 17.1641 13.1474Z" fill="#A30552"/>
<path d="M17.0649 10.804C16.9328 10.9795 16.8668 11.0672 16.8872 11.1575C16.9075 11.2478 16.9924 11.2922 17.1622 11.3811C17.6122 11.6167 18.1243 11.75 18.6675 11.75C20.4624 11.75 21.9175 10.2949 21.9175 8.5C21.9175 6.70507 20.4624 5.25 18.6675 5.25C18.5018 5.25 18.3391 5.26239 18.1801 5.28631C17.9904 5.31484 17.8955 5.3291 17.8468 5.4079C17.7981 5.48671 17.832 5.59136 17.9 5.80068C18.0736 6.33583 18.1675 6.90695 18.1675 7.5C18.1675 8.73995 17.7572 9.88407 17.0649 10.804Z" fill="#A30552"/>
</g>
<path d="M8.35846 14.4733C10.9962 12.8422 14.342 12.8422 16.9797 14.4733C17.0575 14.5214 17.156 14.579 17.2692 14.6452L17.2692 14.6452C17.7815 14.945 18.5946 15.4208 19.1495 15.9849C19.4981 16.3391 19.8457 16.8221 19.909 17.4242C19.9768 18.0683 19.7034 18.6646 19.1819 19.1806C18.3203 20.033 17.2529 20.75 15.8535 20.75H9.48472C8.08526 20.75 7.01793 20.033 6.15631 19.1806C5.63474 18.6646 5.36134 18.0683 5.42914 17.4242C5.49252 16.8221 5.84012 16.3391 6.18864 15.9849C6.74355 15.4208 7.55673 14.945 8.069 14.6452L8.06904 14.6452C8.18221 14.579 8.28069 14.5214 8.35846 14.4733Z" fill="#A30552"/>
<path d="M8.41895 7.5C8.41895 5.15279 10.3217 3.25 12.6689 3.25C15.0162 3.25 16.9189 5.15279 16.9189 7.5C16.9189 9.84721 15.0162 11.75 12.6689 11.75C10.3217 11.75 8.41895 9.84721 8.41895 7.5Z" fill="#A30552"/>
</g>
<defs>
<clipPath id="clip0_1028_4683">
<rect width="24" height="24" fill="white" transform="translate(0.666992)"/>
</clipPath>
</defs>
</svg>
