<svg width="16" height="16" viewBox="0 0 16 16" fill="none" xmlns="http://www.w3.org/2000/svg">
<path d="M4.38505 10.3207C3.44187 10.8823 0.96891 12.0291 2.47511 13.4641C3.21087 14.165 4.03033 14.6663 5.06058 14.6663H10.9394C11.9697 14.6663 12.7891 14.165 13.5249 13.4641C15.0311 12.0291 12.5581 10.8823 11.6149 10.3207C9.40321 9.00377 6.59679 9.00377 4.38505 10.3207Z" stroke="#68666F" stroke-linecap="round" stroke-linejoin="round"/>
<path d="M11 4.33301C11 5.98986 9.65685 7.33301 8 7.33301C6.34315 7.33301 5 5.98986 5 4.33301C5 2.67615 6.34315 1.33301 8 1.33301C9.65685 1.33301 11 2.67615 11 4.33301Z" stroke="#68666F"/>
</svg>
