<svg width="16" height="16" viewBox="0 0 16 16" fill="none" xmlns="http://www.w3.org/2000/svg">
<path d="M12.4104 13.333H12.7372C13.5038 13.333 14.1135 12.9837 14.6609 12.4954C16.0517 11.2547 12.7824 9.99967 11.6663 9.99967M10.333 3.37885C10.4844 3.34883 10.6416 3.33301 10.8028 3.33301C12.0161 3.33301 12.9997 4.22844 12.9997 5.33301C12.9997 6.43758 12.0161 7.33301 10.8028 7.33301C10.6416 7.33301 10.4844 7.31719 10.333 7.28716" stroke="#68666F" stroke-linecap="round"/>
<path d="M2.98754 10.7405C2.20156 11.1617 0.140758 12.0217 1.39592 13.098C2.00906 13.6237 2.69194 13.9997 3.55048 13.9997H8.44952C9.30806 13.9997 9.99094 13.6237 10.6041 13.098C11.8592 12.0217 9.79844 11.1617 9.01246 10.7405C7.16934 9.75274 4.83066 9.75274 2.98754 10.7405Z" stroke="#68666F"/>
<path d="M8.66667 4.99967C8.66667 6.47243 7.47276 7.66634 6 7.66634C4.52724 7.66634 3.33333 6.47243 3.33333 4.99967C3.33333 3.52692 4.52724 2.33301 6 2.33301C7.47276 2.33301 8.66667 3.52692 8.66667 4.99967Z" stroke="#68666F"/>
</svg>
