<svg width="20" height="20" viewBox="0 0 20 20" fill="none" xmlns="http://www.w3.org/2000/svg">
<g clip-path="url(#clip0_1028_4620)">
<path d="M9.99935 11.7058C8.15993 11.534 6.27483 11.9326 4.64733 12.9016C3.46835 13.6037 0.377153 15.0371 2.2599 16.8308C3.17961 17.707 4.20392 18.3337 5.49174 18.3337H10.8327" stroke="#A30552" stroke-width="1.5" stroke-linecap="round" stroke-linejoin="round"/>
<path d="M12.916 5.41699C12.916 7.48806 11.2371 9.16699 9.16602 9.16699C7.09495 9.16699 5.41602 7.48806 5.41602 5.41699C5.41602 3.34592 7.09495 1.66699 9.16602 1.66699C11.2371 1.66699 12.916 3.34592 12.916 5.41699Z" stroke="#A30552" stroke-width="1.5"/>
<path d="M14.9987 11.667C13.9434 11.667 13.2591 12.34 12.4498 12.5853C12.1207 12.685 11.9562 12.7349 11.8896 12.8052C11.823 12.8755 11.8035 12.9782 11.7645 13.1837C11.3472 15.3823 12.2593 17.415 14.4345 18.2062C14.6683 18.2912 14.7851 18.3337 14.9999 18.3337C15.2146 18.3337 15.3315 18.2912 15.5652 18.2061C17.7403 17.415 18.6515 15.3823 18.2341 13.1837C18.1951 12.9782 18.1756 12.8755 18.109 12.8052C18.0424 12.7349 17.8778 12.685 17.5488 12.5853C16.7392 12.34 16.0541 11.667 14.9987 11.667Z" stroke="#A30552" stroke-width="1.5" stroke-linecap="round" stroke-linejoin="round"/>
</g>
<defs>
<clipPath id="clip0_1028_4620">
<rect width="20" height="20" fill="white"/>
</clipPath>
</defs>
</svg>
