<svg width="16" height="16" viewBox="0 0 16 16" fill="none" xmlns="http://www.w3.org/2000/svg">
<g clip-path="url(#clip0_1028_4502)">
<path opacity="0.4" d="M5.05092 2.80899C5.18466 2.50108 5.25153 2.34712 5.1923 2.25681C5.13306 2.1665 4.97666 2.1665 4.66384 2.1665L2.78756 2.16651C1.70809 2.16651 0.833008 3.03955 0.833008 4.1165V9.36403C0.832992 10.5493 0.832978 11.5046 0.934232 12.256C1.03936 13.0361 1.26425 13.6929 1.78713 14.2146C2.31001 14.7362 2.96836 14.9606 3.75028 15.0655C4.5034 15.1665 5.46098 15.1665 6.649 15.1664H10.6517C11.5339 15.1665 12.2614 15.1665 12.8372 15.0893C13.4417 15.0082 13.9756 14.8314 14.403 14.4049C14.8305 13.9785 15.0077 13.4458 15.089 12.8428C15.1664 12.2683 15.1664 11.5425 15.1663 10.6623V9.27062C15.1664 8.39044 15.1664 7.66464 15.089 7.0902C15.0077 6.48711 14.8305 5.95449 14.403 5.52802C13.9756 5.10155 13.4417 4.92477 12.8372 4.84369C12.4193 4.76167 11.2059 4.75805 10.6514 4.76649L2.78726 4.76649C2.42744 4.76649 2.13574 4.47548 2.13574 4.1165C2.13574 3.75751 2.42744 3.4665 2.78726 3.4665H4.51462C4.65975 3.4665 4.73232 3.4665 4.78459 3.42899C4.83686 3.39148 4.86159 3.31831 4.91104 3.17196C4.95273 3.04858 4.99944 2.92751 5.05092 2.80899Z" fill="#1A73E8"/>
<path d="M13 9.99984C13 9.26346 12.403 8.6665 11.6667 8.6665C10.9303 8.6665 10.3333 9.26346 10.3333 9.99984C10.3333 10.7362 10.9303 11.3332 11.6667 11.3332C12.403 11.3332 13 10.7362 13 9.99984Z" fill="#1A73E8"/>
<path d="M12.9705 4.02068C13.042 4.03054 13.1036 3.96871 13.0892 3.89795C12.7334 2.14909 11.1869 0.833008 9.33294 0.833008C7.55091 0.833008 6.05288 2.049 5.62335 3.69651C5.59164 3.81816 5.68642 3.93305 5.81213 3.93305L10.6452 3.93305C10.9312 3.92878 11.3808 3.92762 11.8154 3.93796C12.2132 3.94741 12.6773 3.96744 12.9705 4.02068Z" fill="#1A73E8"/>
</g>
<defs>
<clipPath id="clip0_1028_4502">
<rect width="16" height="16" fill="white"/>
</clipPath>
</defs>
</svg>
